# xmcd CD database file
#
# Track frame offsets:
#	150
#	21687
#	26267
#	32300
#	49542
#	55635
#	70770
#	95157
#	111250
#	124870
#	147605
#	165362
#
# Disc length: 2558 seconds
#
# Revision: 3
# Processed by: cddbd v1.5.2PL0 Copyright (c) Steve Scherf et al.
# Submitted via: CDex 1.70beta2
#
DISCID=9e09fc0c
DTITLE=坂本龍一 - OPERA
DYEAR=1993
DGENRE=
TTITLE0=MERRY CHRISTMAS Mr.LAWRENCE
TTITLE1=RIDE RIDE RIDE
TTITLE2=ゴリラがバナナをくれる日
TTITLE3=DEAR LIZ
TTITLE4=BEFORE LONG
TTITLE5=GRASSHOPPERS
TTITLE6=PARADISE LOST
TTITLE7=PAROLIBRE
TTITLE8=リイクニのテーマ
TTITLE9=THE SEED AND THE SOWER
TTITLE10=ワタスゲの原
TTITLE11=THE LAST EMPEROR-THEME
EXTD=YEAR: 1993
EXTT0=
EXTT1=
EXTT2=
EXTT3=
EXTT4=
EXTT5=
EXTT6=
EXTT7=
EXTT8=
EXTT9=
EXTT10=
EXTT11=
PLAYORDER=
